<?xml version="1.0"?>
<svg version="1.1" xmlns="http://www.w3.org/2000/svg" width="305" height="40" style=""><path fill="#102d42" d="M16.12,39.2l0-2.72l2.4-0.96l0-15.04l-2.4-0.96l0-2.72l7.36-0.16l2.432,0c5.248,0,8.32,2.176,8.32,6.528c0,3.008-1.44,4.96-3.616,6.048c0.352,0.416,0.832,1.024,1.344,2.08l2.144,4.384l2.176,0.8l0,2.72l-5.92,0l-2.688-5.92c-1.088-2.432-1.376-2.944-3.072-2.944l-1.12,0l0,5.184l2.304,0.96l0,2.72l-9.664,0z M23.48,26.976l1.824,0c2.528,0,4-1.216,4-3.36c0-1.824-1.216-3.136-3.2-3.136l-2.624,0l0,6.496z M39.30432,24.64l0-2.56l7.36-0.16l0,11.04c0,1.76,0.512,2.56,1.952,2.56c2.08,0,3.616-1.728,3.616-1.728l0-8.352l-2.56-0.8l0-2.56l7.36-0.16l0,13.92l2.56,0.64l0,2.496l-6.752,0.224l-0.32-2.24s-2.56,2.56-5.6,2.56c-3.2,0-5.056-2.144-5.056-5.728l0-8.352z M75.41664,39.2l-0.288-1.696c-0.448,0.448-2.08,2.016-4.832,2.016c-4.48,0-6.56-3.264-6.56-8.544c0-6.016,2.88-9.376,8.736-9.376c0.768,0,1.696,0.16,2.4,0.32l0-4.064l-2.56-0.64l0-2.56l7.36-0.256l0,21.376l2.56,0.64l0,2.56z M74.87264,33.856l0-7.936c-0.608-0.288-1.568-0.48-2.496-0.48c-2.72,0-3.68,2.08-3.68,5.28c0,3.232,0.896,4.96,3.072,4.96c2.048,0,3.104-1.824,3.104-1.824z M92.93696,21.92l0.288,2.208s2.304-2.528,4.448-2.528c1.76,0,2.976,0.576,2.976,0.576l-0.256,6.144l-2.88,0l-0.48-2.72c-1.856,0-3.456,1.792-3.456,1.792l0,8.448l3.2,0.8l0,2.56l-10.56,0l0-2.56l2.56-0.8l0-10.4l-2.56-0.8l0-2.56z M115.06528,39.2l-0.576-2.08s-2.464,2.4-5.184,2.4c-3.104,0-4.992-1.824-4.992-5.024c0-3.776,2.848-5.28,7.712-5.28l2.24,0l0-1.76c0-1.632-0.864-2.336-2.464-2.336c-1.632,0-2.816,0.48-2.816,0.48l-0.48,2.016l-2.88,0l-0.224-4.736s3.872-1.28,6.944-1.28c4.864,0,6.72,1.696,6.72,6.336l0,7.904l2.4,0.576l0,2.56z M114.26528,31.936l-1.824,0c-2.496,0-3.488,0.64-3.488,2.08c0,1.216,0.672,1.92,1.888,1.92c1.696,0,3.424-1.856,3.424-1.856l0-2.144z M132.3936,21.92l0.224,2.208s3.04-2.464,5.888-2.464c3.104,0,4.864,2.208,4.864,5.696l0,8.48l2.24,0.8l0,2.56l-8.8,0l0-2.56l1.76-0.8l0-7.616c0-1.472-0.832-2.56-2.176-2.56c-1.984,0-3.424,1.824-3.424,1.824l0,8.352l1.76,0.8l0,2.56l-9.12,0l0-2.56l2.56-0.8l0-10.4l-2.56-0.8l0-2.56z M151.73792,16.64c0-1.824,1.312-2.88,2.752-2.88c1.664,0,2.688,0.864,2.688,2.88c0,1.888-1.376,2.912-2.688,2.912c-1.728,0-2.752-1.024-2.752-2.912z M157.11392,35.84l2.24,0.8l0,2.56l-9.6,0l0-2.56l2.56-0.8l0-10.4l-2.56-0.8l0-2.56l7.36-0.16l0,13.92z M170.57024,35.84l2.88,0.8l0,2.56l-10.272,0l0-2.56l2.56-0.8l0-17.984l-2.56-0.64l0-2.56l7.392-0.256l0,21.44z M186.69888,39.2l0-2.72l2.4-0.96l0-15.104l-2.4-0.96l0-2.656l9.76-0.16l0,2.816l-2.4,0.96l0,5.504l2.176,0l5.344-9.12l5.92-0.16l0,2.816l-3.04,0.896l-4.192,6.976l5.952,8.192l2.4,0.96l0,2.72l-9.76,0l0-2.72l1.92-0.96l-4.384-6.08l-2.336,0l0,6.08l2.4,0.96l0,2.72l-9.76,0z M211.3232,24.64l0-2.56l7.36-0.16l0,11.04c0,1.76,0.512,2.56,1.952,2.56c2.08,0,3.616-1.728,3.616-1.728l0-8.352l-2.56-0.8l0-2.56l7.36-0.16l0,13.92l2.56,0.64l0,2.496l-6.752,0.224l-0.32-2.24s-2.56,2.56-5.6,2.56c-3.2,0-5.056-2.144-5.056-5.728l0-8.352z M242.37952,21.92l0.224,2.208s3.04-2.464,5.888-2.464c3.104,0,4.864,2.208,4.864,5.696l0,8.48l2.24,0.8l0,2.56l-8.8,0l0-2.56l1.76-0.8l0-7.616c0-1.472-0.832-2.56-2.176-2.56c-1.984,0-3.424,1.824-3.424,1.824l0,8.352l1.76,0.8l0,2.56l-9.12,0l0-2.56l2.56-0.8l0-10.4l-2.56-0.8l0-2.56z M271.57984,39.2l-0.288-1.696c-0.448,0.448-2.08,2.016-4.832,2.016c-4.48,0-6.56-3.264-6.56-8.544c0-6.016,2.88-9.376,8.736-9.376c0.768,0,1.696,0.16,2.4,0.32l0-4.064l-2.56-0.64l0-2.56l7.36-0.256l0,21.376l2.56,0.64l0,2.56z M271.03584,33.856l0-7.936c-0.608-0.288-1.568-0.48-2.496-0.48c-2.72,0-3.68,2.08-3.68,5.28c0,3.232,0.896,4.96,3.072,4.96c2.048,0,3.104-1.824,3.104-1.824z M281.74016,24.64l0-2.56l7.36-0.16l0,11.04c0,1.76,0.512,2.56,1.952,2.56c2.08,0,3.616-1.728,3.616-1.728l0-8.352l-2.56-0.8l0-2.56l7.36-0.16l0,13.92l2.56,0.64l0,2.496l-6.752,0.224l-0.32-2.24s-2.56,2.56-5.6,2.56c-3.2,0-5.056-2.144-5.056-5.728l0-8.352z"/><path fill="#" d=""/></svg>
